<svg xmlns="http://www.w3.org/2000/svg" xmlns:xlink="http://www.w3.org/1999/xlink" width="2000" zoomAndPan="magnify" viewBox="0 0 1500 1499.999933" height="2000" preserveAspectRatio="xMidYMid meet" version="1.0"><defs><g/></defs><rect x="-150" width="1800" fill="#ffffff" y="-149.999993" height="1799.99992" fill-opacity="1"/><g fill="#f24949" fill-opacity="1"><g transform="translate(168.076656, 686.725753)"><g><path d="M 9.796875 -9.328125 L 5.6875 -128.078125 C 5.59375 -130.953125 6.765625 -133.210938 9.203125 -134.859375 C 11.640625 -136.503906 14.601562 -137.382812 18.09375 -137.5 L 83 -139.75 C 85.863281 -139.851562 88.082031 -138.679688 89.65625 -136.234375 C 91.238281 -133.785156 92.085938 -130.878906 92.203125 -127.515625 C 92.328125 -123.890625 91.65625 -120.804688 90.1875 -118.265625 C 88.71875 -115.722656 86.613281 -114.40625 83.875 -114.3125 L 35.421875 -112.640625 L 36.515625 -81.03125 L 64.765625 -82 C 67.503906 -82.09375 69.691406 -81.046875 71.328125 -78.859375 C 72.972656 -76.671875 73.847656 -74.019531 73.953125 -70.90625 C 74.046875 -68.039062 73.378906 -65.457031 71.953125 -63.15625 C 70.535156 -60.863281 68.394531 -59.664062 65.53125 -59.5625 L 37.28125 -58.59375 L 38.953125 -10.34375 C 39.054688 -7.46875 37.703125 -5.203125 34.890625 -3.546875 C 32.078125 -1.890625 28.675781 -0.988281 24.6875 -0.84375 C 20.695312 -0.707031 17.242188 -1.367188 14.328125 -2.828125 C 11.410156 -4.285156 9.898438 -6.453125 9.796875 -9.328125 Z M 9.796875 -9.328125 "/></g></g></g><g fill="#f24949" fill-opacity="1"><g transform="translate(264.394482, 683.395922)"><g><path d="M 6.1875 -37.671875 L 4.71875 -80.3125 C 4.632812 -82.5625 5.992188 -84.671875 8.796875 -86.640625 C 11.597656 -88.609375 14.992188 -89.660156 18.984375 -89.796875 C 22.734375 -89.921875 26.101562 -89.097656 29.09375 -87.328125 C 32.09375 -85.566406 33.632812 -83.5625 33.71875 -81.3125 L 35.1875 -38.671875 C 35.3125 -35.054688 36.789062 -31.859375 39.625 -29.078125 C 42.46875 -26.304688 45.695312 -24.984375 49.3125 -25.109375 C 52.925781 -25.234375 56.023438 -26.773438 58.609375 -29.734375 C 61.191406 -32.703125 62.421875 -35.992188 62.296875 -39.609375 L 60.828125 -82.4375 C 60.742188 -84.8125 62.132812 -86.921875 65 -88.765625 C 67.863281 -90.609375 71.226562 -91.597656 75.09375 -91.734375 C 79.21875 -91.878906 82.679688 -91.125 85.484375 -89.46875 C 88.285156 -87.820312 89.726562 -85.8125 89.8125 -83.4375 L 91.28125 -40.609375 C 91.644531 -30.128906 87.753906 -20.816406 79.609375 -12.671875 C 71.460938 -4.523438 61.65625 -0.253906 50.1875 0.140625 C 38.59375 0.546875 28.453125 -3.03125 19.765625 -10.59375 C 11.078125 -18.164062 6.550781 -27.191406 6.1875 -37.671875 Z M 6.1875 -37.671875 "/></g></g></g><g fill="#f24949" fill-opacity="1"><g transform="translate(364.452815, 679.936777)"><g><path d="M 6.953125 -31.890625 L 3.9375 -119.21875 C 3.851562 -121.71875 5.273438 -123.859375 8.203125 -125.640625 C 11.128906 -127.429688 14.398438 -128.390625 18.015625 -128.515625 C 21.890625 -128.640625 25.320312 -127.910156 28.3125 -126.328125 C 31.300781 -124.753906 32.835938 -122.71875 32.921875 -120.21875 L 33.953125 -90.3125 L 55.09375 -91.046875 C 57.332031 -91.117188 59.109375 -90.144531 60.421875 -88.125 C 61.742188 -86.113281 62.453125 -83.734375 62.546875 -80.984375 C 62.640625 -78.117188 62.097656 -75.664062 60.921875 -73.625 C 59.753906 -71.59375 58.050781 -70.539062 55.8125 -70.46875 L 34.671875 -69.734375 L 35.9375 -32.890625 C 36.03125 -30.148438 36.65625 -28.265625 37.8125 -27.234375 C 38.96875 -26.210938 40.984375 -25.753906 43.859375 -25.859375 L 51.90625 -26.140625 C 55.894531 -26.273438 58.988281 -25.160156 61.1875 -22.796875 C 63.382812 -20.441406 64.539062 -17.648438 64.65625 -14.421875 C 64.769531 -11.046875 63.8125 -8.132812 61.78125 -5.6875 C 59.75 -3.25 56.738281 -1.960938 52.75 -1.828125 L 44.703125 -1.546875 C 20.265625 -0.703125 7.679688 -10.816406 6.953125 -31.890625 Z M 6.953125 -31.890625 "/></g></g></g><g fill="#f24949" fill-opacity="1"><g transform="translate(432.529866, 677.583266)"><g><path d="M 6.1875 -37.671875 L 4.71875 -80.3125 C 4.632812 -82.5625 5.992188 -84.671875 8.796875 -86.640625 C 11.597656 -88.609375 14.992188 -89.660156 18.984375 -89.796875 C 22.734375 -89.921875 26.101562 -89.097656 29.09375 -87.328125 C 32.09375 -85.566406 33.632812 -83.5625 33.71875 -81.3125 L 35.1875 -38.671875 C 35.3125 -35.054688 36.789062 -31.859375 39.625 -29.078125 C 42.46875 -26.304688 45.695312 -24.984375 49.3125 -25.109375 C 52.925781 -25.234375 56.023438 -26.773438 58.609375 -29.734375 C 61.191406 -32.703125 62.421875 -35.992188 62.296875 -39.609375 L 60.828125 -82.4375 C 60.742188 -84.8125 62.132812 -86.921875 65 -88.765625 C 67.863281 -90.609375 71.226562 -91.597656 75.09375 -91.734375 C 79.21875 -91.878906 82.679688 -91.125 85.484375 -89.46875 C 88.285156 -87.820312 89.726562 -85.8125 89.8125 -83.4375 L 91.28125 -40.609375 C 91.644531 -30.128906 87.753906 -20.816406 79.609375 -12.671875 C 71.460938 -4.523438 61.65625 -0.253906 50.1875 0.140625 C 38.59375 0.546875 28.453125 -3.03125 19.765625 -10.59375 C 11.078125 -18.164062 6.550781 -27.191406 6.1875 -37.671875 Z M 6.1875 -37.671875 "/></g></g></g><g fill="#f24949" fill-opacity="1"><g transform="translate(532.588189, 674.124122)"><g><path d="M 8.109375 -9.28125 L 5.65625 -80.53125 C 5.5625 -83.15625 6.820312 -85.320312 9.4375 -87.03125 C 12.0625 -88.738281 15.429688 -89.664062 19.546875 -89.8125 C 23.171875 -89.9375 26.257812 -89.234375 28.8125 -87.703125 C 31.363281 -86.171875 32.6875 -84.09375 32.78125 -81.46875 L 33.015625 -74.546875 C 34.835938 -79.097656 37.78125 -83.128906 41.84375 -86.640625 C 45.914062 -90.148438 50.195312 -91.984375 54.6875 -92.140625 L 60.109375 -92.328125 C 62.847656 -92.421875 65.285156 -91.257812 67.421875 -88.84375 C 69.566406 -86.425781 70.695312 -83.53125 70.8125 -80.15625 C 70.9375 -76.664062 70.007812 -73.632812 68.03125 -71.0625 C 66.0625 -68.5 63.707031 -67.171875 60.96875 -67.078125 L 55.546875 -66.890625 C 50.179688 -66.703125 45.53125 -63.953125 41.59375 -58.640625 C 37.664062 -53.328125 35.84375 -46.554688 36.125 -38.328125 L 37.09375 -10.28125 C 37.175781 -8.03125 35.78125 -5.914062 32.90625 -3.9375 C 30.039062 -1.96875 26.613281 -0.914062 22.625 -0.78125 C 18.632812 -0.644531 15.238281 -1.429688 12.4375 -3.140625 C 9.632812 -4.859375 8.191406 -6.90625 8.109375 -9.28125 Z M 8.109375 -9.28125 "/></g></g></g><g fill="#f24949" fill-opacity="1"><g transform="translate(606.276015, 671.576639)"><g><path d="M 3.734375 -37.953125 L 3.265625 -51.609375 C 2.898438 -62.203125 6.796875 -71.445312 14.953125 -79.34375 C 23.109375 -87.238281 33.109375 -91.390625 44.953125 -91.796875 C 56.046875 -92.179688 65.632812 -89.171875 73.71875 -82.765625 C 81.8125 -76.367188 86.035156 -68 86.390625 -57.65625 C 86.523438 -53.664062 86.140625 -50.40625 85.234375 -47.875 C 84.328125 -45.351562 82.890625 -43.554688 80.921875 -42.484375 C 78.960938 -41.421875 77.144531 -40.703125 75.46875 -40.328125 C 73.800781 -39.960938 71.59375 -39.734375 68.84375 -39.640625 L 32.765625 -38.390625 L 32.796875 -37.28125 C 32.953125 -32.65625 34.820312 -29 38.40625 -26.3125 C 42 -23.625 46.660156 -22.378906 52.390625 -22.578125 C 56.765625 -22.734375 61.3125 -24.050781 66.03125 -26.53125 C 70.75 -29.007812 73.921875 -30.273438 75.546875 -30.328125 C 78.660156 -30.441406 81.265625 -29.066406 83.359375 -26.203125 C 85.453125 -23.335938 86.546875 -20.59375 86.640625 -17.96875 C 86.773438 -14.113281 83.566406 -10.226562 77.015625 -6.3125 C 70.472656 -2.40625 62.28125 -0.28125 52.4375 0.0625 C 38.46875 0.539062 26.960938 -2.710938 17.921875 -9.703125 C 8.878906 -16.691406 4.148438 -26.109375 3.734375 -37.953125 Z M 32.203125 -54.65625 L 55.390625 -55.46875 C 58.003906 -55.550781 59.257812 -57.09375 59.15625 -60.09375 C 59.03125 -63.582031 57.59375 -66.273438 54.84375 -68.171875 C 52.09375 -70.066406 48.847656 -70.953125 45.109375 -70.828125 C 41.492188 -70.703125 38.378906 -69.597656 35.765625 -67.515625 C 33.160156 -65.429688 31.921875 -62.644531 32.046875 -59.15625 Z M 32.203125 -54.65625 "/></g></g></g><g fill="#55756d" fill-opacity="1"><g transform="translate(711.77657, 662.256064)"><g><path d="M 7.515625 31.90625 L 11.375 -79.9375 C 11.46875 -82.5625 12.878906 -84.632812 15.609375 -86.15625 C 18.347656 -87.6875 21.648438 -88.382812 25.515625 -88.25 C 29.390625 -88.125 32.546875 -87.207031 34.984375 -85.5 C 37.421875 -83.789062 38.59375 -81.625 38.5 -79 L 38.359375 -74.703125 C 40.847656 -78.609375 44.382812 -81.851562 48.96875 -84.4375 C 53.5625 -87.019531 58.601562 -88.21875 64.09375 -88.03125 C 73.4375 -87.707031 81.21875 -83.597656 87.4375 -75.703125 C 93.65625 -67.816406 96.578125 -58.453125 96.203125 -47.609375 L 95.75 -34.515625 C 95.382812 -24.035156 91.789062 -14.914062 84.96875 -7.15625 C 78.15625 0.59375 70.445312 4.316406 61.84375 4.015625 C 56.601562 3.835938 51.753906 2.203125 47.296875 -0.890625 C 42.847656 -3.984375 39.765625 -7.613281 38.046875 -11.78125 L 36.5 32.90625 C 36.425781 35.15625 34.890625 37.160156 31.890625 38.921875 C 28.890625 40.691406 25.394531 41.503906 21.40625 41.359375 C 17.414062 41.222656 14.082031 40.207031 11.40625 38.3125 C 8.726562 36.414062 7.429688 34.28125 7.515625 31.90625 Z M 38.8125 -34.0625 C 38.75 -32.0625 40.066406 -29.515625 42.765625 -26.421875 C 45.460938 -23.328125 48.6875 -21.71875 52.4375 -21.59375 C 56.050781 -21.46875 59.304688 -22.820312 62.203125 -25.65625 C 65.109375 -28.488281 66.628906 -31.773438 66.765625 -35.515625 L 67.21875 -48.609375 C 67.34375 -52.222656 66.050781 -55.507812 63.34375 -58.46875 C 60.644531 -61.4375 57.363281 -62.988281 53.5 -63.125 C 49.875 -63.25 46.644531 -62.082031 43.8125 -59.625 C 40.988281 -57.164062 39.503906 -53.816406 39.359375 -49.578125 Z M 38.8125 -34.0625 "/></g></g></g><g fill="#55756d" fill-opacity="1"><g transform="translate(811.460837, 665.702277)"><g><path d="M 8.734375 -8.6875 L 11.1875 -79.9375 C 11.28125 -82.5625 12.691406 -84.640625 15.421875 -86.171875 C 18.160156 -87.703125 21.585938 -88.394531 25.703125 -88.25 C 29.328125 -88.125 32.359375 -87.207031 34.796875 -85.5 C 37.234375 -83.789062 38.40625 -81.625 38.3125 -79 L 38.078125 -72.078125 C 40.210938 -76.503906 43.425781 -80.328125 47.71875 -83.546875 C 52.019531 -86.765625 56.414062 -88.296875 60.90625 -88.140625 L 66.328125 -87.953125 C 69.066406 -87.859375 71.421875 -86.53125 73.390625 -83.96875 C 75.367188 -81.40625 76.300781 -78.4375 76.1875 -75.0625 C 76.0625 -71.570312 74.925781 -68.613281 72.78125 -66.1875 C 70.644531 -63.769531 68.207031 -62.609375 65.46875 -62.703125 L 60.046875 -62.890625 C 54.679688 -63.078125 49.847656 -60.65625 45.546875 -55.625 C 41.253906 -50.59375 38.96875 -43.960938 38.6875 -35.734375 L 37.71875 -7.6875 C 37.632812 -5.4375 36.09375 -3.425781 33.09375 -1.65625 C 30.101562 0.101562 26.613281 0.914062 22.625 0.78125 C 18.632812 0.644531 15.300781 -0.367188 12.625 -2.265625 C 9.945312 -4.171875 8.648438 -6.3125 8.734375 -8.6875 Z M 8.734375 -8.6875 "/></g></g></g><g fill="#55756d" fill-opacity="1"><g transform="translate(885.148653, 668.24976)"><g><path d="M 6.359375 -37.609375 L 6.828125 -51.265625 C 7.191406 -61.859375 11.710938 -70.8125 20.390625 -78.125 C 29.066406 -85.4375 39.328125 -88.890625 51.171875 -88.484375 C 62.265625 -88.097656 71.625 -84.429688 79.25 -77.484375 C 86.882812 -70.546875 90.523438 -61.90625 90.171875 -51.5625 C 90.035156 -47.570312 89.425781 -44.34375 88.34375 -41.875 C 87.257812 -39.414062 85.695312 -37.722656 83.65625 -36.796875 C 81.625 -35.878906 79.757812 -35.289062 78.0625 -35.03125 C 76.375 -34.78125 74.15625 -34.703125 71.40625 -34.796875 L 35.328125 -36.046875 L 35.296875 -34.9375 C 35.140625 -30.3125 36.753906 -26.535156 40.140625 -23.609375 C 43.535156 -20.679688 48.097656 -19.117188 53.828125 -18.921875 C 58.203125 -18.765625 62.828125 -19.757812 67.703125 -21.90625 C 72.578125 -24.050781 75.828125 -25.097656 77.453125 -25.046875 C 80.566406 -24.929688 83.070312 -23.375 84.96875 -20.375 C 86.863281 -17.375 87.765625 -14.5625 87.671875 -11.9375 C 87.535156 -8.082031 84.066406 -4.425781 77.265625 -0.96875 C 70.472656 2.476562 62.15625 4.03125 52.3125 3.6875 C 38.34375 3.207031 27.085938 -0.832031 18.546875 -8.4375 C 10.003906 -16.039062 5.941406 -25.765625 6.359375 -37.609375 Z M 35.890625 -52.3125 L 59.078125 -51.5 C 61.691406 -51.414062 63.050781 -52.875 63.15625 -55.875 C 63.28125 -59.363281 62.035156 -62.148438 59.421875 -64.234375 C 56.804688 -66.316406 53.628906 -67.421875 49.890625 -67.546875 C 46.273438 -67.671875 43.09375 -66.785156 40.34375 -64.890625 C 37.601562 -62.992188 36.171875 -60.300781 36.046875 -56.8125 Z M 35.890625 -52.3125 "/></g></g></g><g fill="#55756d" fill-opacity="1"><g transform="translate(977.913002, 671.456742)"><g><path d="M 8.734375 -8.6875 L 11.1875 -79.9375 C 11.28125 -82.5625 12.691406 -84.640625 15.421875 -86.171875 C 18.160156 -87.703125 21.648438 -88.394531 25.890625 -88.25 C 29.390625 -88.125 32.359375 -87.207031 34.796875 -85.5 C 37.234375 -83.789062 38.40625 -81.625 38.3125 -79 L 38.171875 -74.703125 C 40.285156 -78.628906 43.601562 -81.882812 48.125 -84.46875 C 52.65625 -87.050781 57.851562 -88.242188 63.71875 -88.046875 C 72.3125 -87.742188 79.625 -83.617188 85.65625 -75.671875 C 91.6875 -67.734375 94.519531 -58.40625 94.15625 -47.6875 L 92.703125 -5.796875 C 92.597656 -2.921875 91.085938 -0.753906 88.171875 0.703125 C 85.253906 2.160156 81.796875 2.820312 77.796875 2.6875 C 74.054688 2.5625 70.75 1.640625 67.875 -0.078125 C 65.007812 -1.804688 63.625 -4.046875 63.71875 -6.796875 L 65.171875 -48.6875 C 65.296875 -52.300781 64.066406 -55.585938 61.484375 -58.546875 C 58.898438 -61.503906 55.800781 -63.046875 52.1875 -63.171875 C 48.9375 -63.273438 45.988281 -62.09375 43.34375 -59.625 C 40.707031 -57.164062 39.316406 -53.816406 39.171875 -49.578125 L 37.71875 -7.6875 C 37.632812 -5.4375 36.09375 -3.425781 33.09375 -1.65625 C 30.101562 0.101562 26.675781 0.914062 22.8125 0.78125 C 18.695312 0.644531 15.300781 -0.367188 12.625 -2.265625 C 9.945312 -4.171875 8.648438 -6.3125 8.734375 -8.6875 Z M 8.734375 -8.6875 "/></g></g></g><g fill="#55756d" fill-opacity="1"><g transform="translate(1077.784302, 674.909421)"><g><path d="M 6.359375 -37.609375 L 6.828125 -51.265625 C 7.191406 -61.859375 11.710938 -70.8125 20.390625 -78.125 C 29.066406 -85.4375 39.328125 -88.890625 51.171875 -88.484375 C 62.265625 -88.097656 71.625 -84.429688 79.25 -77.484375 C 86.882812 -70.546875 90.523438 -61.90625 90.171875 -51.5625 C 90.035156 -47.570312 89.425781 -44.34375 88.34375 -41.875 C 87.257812 -39.414062 85.695312 -37.722656 83.65625 -36.796875 C 81.625 -35.878906 79.757812 -35.289062 78.0625 -35.03125 C 76.375 -34.78125 74.15625 -34.703125 71.40625 -34.796875 L 35.328125 -36.046875 L 35.296875 -34.9375 C 35.140625 -30.3125 36.753906 -26.535156 40.140625 -23.609375 C 43.535156 -20.679688 48.097656 -19.117188 53.828125 -18.921875 C 58.203125 -18.765625 62.828125 -19.757812 67.703125 -21.90625 C 72.578125 -24.050781 75.828125 -25.097656 77.453125 -25.046875 C 80.566406 -24.929688 83.070312 -23.375 84.96875 -20.375 C 86.863281 -17.375 87.765625 -14.5625 87.671875 -11.9375 C 87.535156 -8.082031 84.066406 -4.425781 77.265625 -0.96875 C 70.472656 2.476562 62.15625 4.03125 52.3125 3.6875 C 38.34375 3.207031 27.085938 -0.832031 18.546875 -8.4375 C 10.003906 -16.039062 5.941406 -25.765625 6.359375 -37.609375 Z M 35.890625 -52.3125 L 59.078125 -51.5 C 61.691406 -51.414062 63.050781 -52.875 63.15625 -55.875 C 63.28125 -59.363281 62.035156 -62.148438 59.421875 -64.234375 C 56.804688 -66.316406 53.628906 -67.421875 49.890625 -67.546875 C 46.273438 -67.671875 43.09375 -66.785156 40.34375 -64.890625 C 37.601562 -62.992188 36.171875 -60.300781 36.046875 -56.8125 Z M 35.890625 -52.3125 "/></g></g></g><g fill="#55756d" fill-opacity="1"><g transform="translate(1170.548674, 678.116405)"><g><path d="M 8.78125 -37.140625 L 10.25 -79.78125 C 10.332031 -82.03125 11.835938 -84.039062 14.765625 -85.8125 C 17.691406 -87.582031 21.148438 -88.398438 25.140625 -88.265625 C 28.890625 -88.140625 32.195312 -87.085938 35.0625 -85.109375 C 37.9375 -83.140625 39.332031 -81.03125 39.25 -78.78125 L 37.78125 -36.140625 C 37.65625 -32.523438 38.910156 -29.234375 41.546875 -26.265625 C 44.191406 -23.304688 47.320312 -21.765625 50.9375 -21.640625 C 54.550781 -21.515625 57.75 -22.835938 60.53125 -25.609375 C 63.3125 -28.390625 64.765625 -31.585938 64.890625 -35.203125 L 66.359375 -78.03125 C 66.441406 -80.40625 67.976562 -82.414062 70.96875 -84.0625 C 73.957031 -85.707031 77.382812 -86.460938 81.25 -86.328125 C 85.375 -86.179688 88.773438 -85.1875 91.453125 -83.34375 C 94.128906 -81.507812 95.425781 -79.40625 95.34375 -77.03125 L 93.875 -34.203125 C 93.507812 -23.722656 88.984375 -14.703125 80.296875 -7.140625 C 71.609375 0.421875 61.53125 4.003906 50.0625 3.609375 C 38.46875 3.203125 28.597656 -1.066406 20.453125 -9.203125 C 12.304688 -17.347656 8.414062 -26.660156 8.78125 -37.140625 Z M 8.78125 -37.140625 "/></g></g></g><g fill="#55756d" fill-opacity="1"><g transform="translate(1270.606974, 681.575548)"><g><path d="M 8.734375 -8.6875 L 11.1875 -79.9375 C 11.28125 -82.5625 12.691406 -84.640625 15.421875 -86.171875 C 18.160156 -87.703125 21.585938 -88.394531 25.703125 -88.25 C 29.328125 -88.125 32.359375 -87.207031 34.796875 -85.5 C 37.234375 -83.789062 38.40625 -81.625 38.3125 -79 L 38.078125 -72.078125 C 40.210938 -76.503906 43.425781 -80.328125 47.71875 -83.546875 C 52.019531 -86.765625 56.414062 -88.296875 60.90625 -88.140625 L 66.328125 -87.953125 C 69.066406 -87.859375 71.421875 -86.53125 73.390625 -83.96875 C 75.367188 -81.40625 76.300781 -78.4375 76.1875 -75.0625 C 76.0625 -71.570312 74.925781 -68.613281 72.78125 -66.1875 C 70.644531 -63.769531 68.207031 -62.609375 65.46875 -62.703125 L 60.046875 -62.890625 C 54.679688 -63.078125 49.847656 -60.65625 45.546875 -55.625 C 41.253906 -50.59375 38.96875 -43.960938 38.6875 -35.734375 L 37.71875 -7.6875 C 37.632812 -5.4375 36.09375 -3.425781 33.09375 -1.65625 C 30.101562 0.101562 26.613281 0.914062 22.625 0.78125 C 18.632812 0.644531 15.300781 -0.367188 12.625 -2.265625 C 9.945312 -4.171875 8.648438 -6.3125 8.734375 -8.6875 Z M 8.734375 -8.6875 "/></g></g></g><g fill="#414c50" fill-opacity="1"><g transform="translate(343.804691, 792.683816)"><g><path d="M 4.859375 0 L 4.859375 -34.71875 L 9.84375 -34.71875 L 9.84375 0 Z M 4.859375 0 "/></g></g></g><g fill="#414c50" fill-opacity="1"><g transform="translate(358.518977, 792.683816)"><g><path d="M 13.8125 -3.484375 C 14.769531 -3.359375 15.71875 -3.203125 16.65625 -3.015625 C 17.601562 -2.835938 18.5 -2.597656 19.34375 -2.296875 C 20.1875 -2.003906 20.929688 -1.609375 21.578125 -1.109375 C 22.222656 -0.617188 22.726562 0.0078125 23.09375 0.78125 C 23.46875 1.550781 23.65625 2.492188 23.65625 3.609375 C 23.65625 4.929688 23.382812 6.082031 22.84375 7.0625 C 22.300781 8.039062 21.554688 8.851562 20.609375 9.5 C 19.660156 10.144531 18.5625 10.625 17.3125 10.9375 C 16.070312 11.257812 14.753906 11.421875 13.359375 11.421875 C 11.097656 11.421875 9.144531 11.046875 7.5 10.296875 C 5.851562 9.554688 4.582031 8.539062 3.6875 7.25 C 2.800781 5.957031 2.359375 4.507812 2.359375 2.90625 C 2.359375 2.675781 2.363281 2.484375 2.375 2.328125 C 2.394531 2.179688 2.414062 2.035156 2.4375 1.890625 L 5.53125 -1.078125 C 4.707031 -1.554688 4.035156 -2.191406 3.515625 -2.984375 C 2.992188 -3.773438 2.734375 -4.785156 2.734375 -6.015625 C 2.734375 -6.929688 2.894531 -7.757812 3.21875 -8.5 C 3.539062 -9.25 4.054688 -9.929688 4.765625 -10.546875 C 4.109375 -11.296875 3.597656 -12.148438 3.234375 -13.109375 C 2.878906 -14.066406 2.703125 -15.09375 2.703125 -16.1875 C 2.703125 -17.5 2.953125 -18.691406 3.453125 -19.765625 C 3.953125 -20.847656 4.644531 -21.773438 5.53125 -22.546875 C 6.414062 -23.316406 7.429688 -23.910156 8.578125 -24.328125 C 9.734375 -24.742188 10.976562 -24.953125 12.3125 -24.953125 C 13.488281 -24.953125 14.597656 -24.789062 15.640625 -24.46875 C 16.679688 -24.144531 17.609375 -23.671875 18.421875 -23.046875 L 22.109375 -26.3125 L 24.6875 -23.125 L 20.90625 -20.125 C 21.5625 -18.894531 21.890625 -17.519531 21.890625 -16 C 21.890625 -14.65625 21.644531 -13.445312 21.15625 -12.375 C 20.664062 -11.3125 19.984375 -10.40625 19.109375 -9.65625 C 18.242188 -8.90625 17.238281 -8.328125 16.09375 -7.921875 C 14.945312 -7.523438 13.71875 -7.328125 12.40625 -7.328125 C 10.71875 -7.328125 9.171875 -7.648438 7.765625 -8.296875 C 7.160156 -7.890625 6.859375 -7.359375 6.859375 -6.703125 C 6.859375 -5.929688 7.164062 -5.34375 7.78125 -4.9375 C 8.394531 -4.539062 9.226562 -4.242188 10.28125 -4.046875 C 11.332031 -3.859375 12.507812 -3.671875 13.8125 -3.484375 Z M 12.375 -21.25 C 11.382812 -21.25 10.523438 -21.019531 9.796875 -20.5625 C 9.078125 -20.101562 8.53125 -19.492188 8.15625 -18.734375 C 7.78125 -17.972656 7.59375 -17.125 7.59375 -16.1875 C 7.59375 -14.71875 8.015625 -13.523438 8.859375 -12.609375 C 9.703125 -11.691406 10.875 -11.234375 12.375 -11.234375 C 13.882812 -11.234375 15.054688 -11.691406 15.890625 -12.609375 C 16.722656 -13.523438 17.140625 -14.71875 17.140625 -16.1875 C 17.140625 -17.132812 16.953125 -17.988281 16.578125 -18.75 C 16.203125 -19.519531 15.65625 -20.128906 14.9375 -20.578125 C 14.226562 -21.023438 13.375 -21.25 12.375 -21.25 Z M 13.53125 7.5 C 14.601562 7.5 15.566406 7.367188 16.421875 7.109375 C 17.285156 6.859375 17.972656 6.476562 18.484375 5.96875 C 19.003906 5.457031 19.265625 4.828125 19.265625 4.078125 C 19.265625 3.453125 19.085938 2.953125 18.734375 2.578125 C 18.378906 2.203125 17.890625 1.910156 17.265625 1.703125 C 16.648438 1.503906 15.914062 1.335938 15.0625 1.203125 C 14.207031 1.066406 13.273438 0.925781 12.265625 0.78125 C 11.671875 0.695312 11.066406 0.601562 10.453125 0.5 C 9.835938 0.394531 9.21875 0.269531 8.59375 0.125 L 6.515625 3 C 6.578125 3.851562 6.898438 4.617188 7.484375 5.296875 C 8.066406 5.972656 8.875 6.507812 9.90625 6.90625 C 10.9375 7.300781 12.144531 7.5 13.53125 7.5 Z M 13.53125 7.5 "/></g></g></g><g fill="#414c50" fill-opacity="1"><g transform="translate(383.968048, 792.683816)"><g><path d="M 3.875 0 L 3.875 -24.546875 L 8.59375 -24.546875 L 8.59375 -20.9375 C 9.5 -22.257812 10.613281 -23.269531 11.9375 -23.96875 C 13.257812 -24.664062 14.675781 -25.015625 16.1875 -25.015625 C 17.707031 -25.015625 19.007812 -24.734375 20.09375 -24.171875 C 21.1875 -23.617188 22.070312 -22.863281 22.75 -21.90625 C 23.4375 -20.945312 23.9375 -19.859375 24.25 -18.640625 C 24.570312 -17.429688 24.734375 -16.164062 24.734375 -14.84375 L 24.734375 0 L 20.015625 0 L 20.015625 -14.296875 C 20.015625 -15.117188 19.921875 -15.910156 19.734375 -16.671875 C 19.546875 -17.441406 19.25 -18.132812 18.84375 -18.75 C 18.4375 -19.363281 17.90625 -19.851562 17.25 -20.21875 C 16.59375 -20.582031 15.796875 -20.765625 14.859375 -20.765625 C 13.660156 -20.765625 12.585938 -20.484375 11.640625 -19.921875 C 10.691406 -19.367188 9.945312 -18.523438 9.40625 -17.390625 C 8.863281 -16.265625 8.59375 -14.820312 8.59375 -13.0625 L 8.59375 0 Z M 3.875 0 "/></g></g></g><g fill="#414c50" fill-opacity="1"><g transform="translate(411.947294, 792.683816)"><g><path d="M 3.6875 -29.609375 L 3.6875 -34.71875 L 8.8125 -34.71875 L 8.8125 -29.609375 Z M 3.875 0 L 3.875 -24.546875 L 8.625 -24.546875 L 8.625 0 Z M 3.875 0 "/></g></g></g><g fill="#414c50" fill-opacity="1"><g transform="translate(424.450752, 792.683816)"><g><path d="M 11.578125 0.484375 C 9.296875 0.484375 7.597656 -0.160156 6.484375 -1.453125 C 5.367188 -2.742188 4.8125 -4.472656 4.8125 -6.640625 L 4.8125 -20.59375 L 0.859375 -20.59375 L 0.859375 -24.546875 L 4.859375 -24.546875 L 4.859375 -30.34375 L 9.53125 -34.171875 L 9.53125 -24.546875 L 15.75 -24.546875 L 15.75 -20.59375 L 9.53125 -20.59375 L 9.53125 -7.125 C 9.53125 -5.863281 9.8125 -4.957031 10.375 -4.40625 C 10.945312 -3.863281 11.648438 -3.59375 12.484375 -3.59375 C 13.003906 -3.59375 13.519531 -3.664062 14.03125 -3.8125 C 14.550781 -3.96875 15.007812 -4.144531 15.40625 -4.34375 L 15.40625 -0.125 C 15.039062 0.0195312 14.507812 0.15625 13.8125 0.28125 C 13.125 0.414062 12.378906 0.484375 11.578125 0.484375 Z M 11.578125 0.484375 "/></g></g></g><g fill="#414c50" fill-opacity="1"><g transform="translate(441.916289, 792.683816)"><g><path d="M 13.53125 0.421875 C 11.550781 0.421875 9.820312 0.0820312 8.34375 -0.59375 C 6.875 -1.28125 5.65625 -2.210938 4.6875 -3.390625 C 3.726562 -4.566406 3.007812 -5.90625 2.53125 -7.40625 C 2.050781 -8.914062 1.8125 -10.5 1.8125 -12.15625 C 1.8125 -13.78125 2.039062 -15.351562 2.5 -16.875 C 2.957031 -18.394531 3.65625 -19.765625 4.59375 -20.984375 C 5.53125 -22.210938 6.707031 -23.179688 8.125 -23.890625 C 9.539062 -24.597656 11.207031 -24.953125 13.125 -24.953125 C 14.769531 -24.953125 16.203125 -24.710938 17.421875 -24.234375 C 18.648438 -23.765625 19.679688 -23.113281 20.515625 -22.28125 C 21.347656 -21.457031 22.019531 -20.519531 22.53125 -19.46875 C 23.039062 -18.425781 23.410156 -17.332031 23.640625 -16.1875 C 23.867188 -15.039062 23.984375 -13.910156 23.984375 -12.796875 C 23.984375 -12.390625 23.960938 -11.988281 23.921875 -11.59375 C 23.890625 -11.195312 23.859375 -10.90625 23.828125 -10.71875 L 6.859375 -10.71875 C 6.941406 -9.4375 7.226562 -8.273438 7.71875 -7.234375 C 8.21875 -6.191406 8.945312 -5.363281 9.90625 -4.75 C 10.863281 -4.132812 12.070312 -3.828125 13.53125 -3.828125 C 14.789062 -3.828125 15.945312 -4.015625 17 -4.390625 C 18.0625 -4.773438 19.046875 -5.46875 19.953125 -6.46875 L 23.234375 -3.6875 C 21.890625 -2.28125 20.4375 -1.242188 18.875 -0.578125 C 17.3125 0.0859375 15.53125 0.421875 13.53125 0.421875 Z M 6.859375 -14.328125 L 19.359375 -14.328125 C 19.296875 -15.566406 19.03125 -16.691406 18.5625 -17.703125 C 18.09375 -18.710938 17.410156 -19.515625 16.515625 -20.109375 C 15.628906 -20.703125 14.488281 -21 13.09375 -21 C 11.75 -21 10.640625 -20.695312 9.765625 -20.09375 C 8.890625 -19.488281 8.210938 -18.675781 7.734375 -17.65625 C 7.265625 -16.644531 6.972656 -15.535156 6.859375 -14.328125 Z M 6.859375 -14.328125 "/></g></g></g><g fill="#414c50" fill-opacity="1"><g transform="translate(467.733837, 792.683816)"><g/></g></g><g fill="#414c50" fill-opacity="1"><g transform="translate(480.458373, 792.683816)"><g><path d="M 13.65625 0 L 13.65625 -13.5625 L 0.65625 -34.71875 L 6.609375 -34.71875 L 16.140625 -18.46875 L 25.71875 -34.71875 L 31.6875 -34.71875 L 18.75 -13.5625 L 18.75 0 Z M 13.65625 0 "/></g></g></g><g fill="#414c50" fill-opacity="1"><g transform="translate(512.810142, 792.683816)"><g><path d="M 13.75 0.484375 C 11.9375 0.484375 10.289062 0.148438 8.8125 -0.515625 C 7.34375 -1.179688 6.078125 -2.109375 5.015625 -3.296875 C 3.953125 -4.484375 3.128906 -5.851562 2.546875 -7.40625 C 1.972656 -8.957031 1.6875 -10.597656 1.6875 -12.328125 C 1.6875 -14.066406 1.972656 -15.707031 2.546875 -17.25 C 3.128906 -18.789062 3.953125 -20.144531 5.015625 -21.3125 C 6.078125 -22.476562 7.34375 -23.394531 8.8125 -24.0625 C 10.289062 -24.726562 11.9375 -25.0625 13.75 -25.0625 C 15.550781 -25.0625 17.191406 -24.726562 18.671875 -24.0625 C 20.160156 -23.394531 21.441406 -22.476562 22.515625 -21.3125 C 23.585938 -20.144531 24.414062 -18.789062 25 -17.25 C 25.582031 -15.707031 25.875 -14.066406 25.875 -12.328125 C 25.875 -10.597656 25.582031 -8.957031 25 -7.40625 C 24.414062 -5.851562 23.585938 -4.484375 22.515625 -3.296875 C 21.441406 -2.109375 20.160156 -1.179688 18.671875 -0.515625 C 17.191406 0.148438 15.550781 0.484375 13.75 0.484375 Z M 13.78125 -3.53125 C 15.039062 -3.53125 16.125 -3.773438 17.03125 -4.265625 C 17.945312 -4.765625 18.691406 -5.429688 19.265625 -6.265625 C 19.835938 -7.097656 20.257812 -8.035156 20.53125 -9.078125 C 20.8125 -10.128906 20.953125 -11.210938 20.953125 -12.328125 C 20.953125 -13.460938 20.8125 -14.546875 20.53125 -15.578125 C 20.257812 -16.609375 19.835938 -17.53125 19.265625 -18.34375 C 18.691406 -19.164062 17.945312 -19.8125 17.03125 -20.28125 C 16.125 -20.757812 15.039062 -21 13.78125 -21 C 12.539062 -21 11.460938 -20.757812 10.546875 -20.28125 C 9.640625 -19.8125 8.894531 -19.164062 8.3125 -18.34375 C 7.726562 -17.53125 7.296875 -16.609375 7.015625 -15.578125 C 6.742188 -14.546875 6.609375 -13.460938 6.609375 -12.328125 C 6.609375 -11.203125 6.742188 -10.113281 7.015625 -9.0625 C 7.296875 -8.019531 7.726562 -7.078125 8.3125 -6.234375 C 8.894531 -5.398438 9.640625 -4.738281 10.546875 -4.25 C 11.460938 -3.769531 12.539062 -3.53125 13.78125 -3.53125 Z M 13.78125 -3.53125 "/></g></g></g><g fill="#414c50" fill-opacity="1"><g transform="translate(540.396363, 792.683816)"><g><path d="M 11.859375 0.515625 C 9.828125 0.515625 8.171875 0.03125 6.890625 -0.9375 C 5.609375 -1.914062 4.664062 -3.265625 4.0625 -4.984375 C 3.46875 -6.703125 3.171875 -8.675781 3.171875 -10.90625 L 3.171875 -24.546875 L 7.984375 -24.546875 L 7.984375 -10.6875 C 7.984375 -9.75 8.050781 -8.851562 8.1875 -8 C 8.332031 -7.15625 8.578125 -6.410156 8.921875 -5.765625 C 9.265625 -5.117188 9.75 -4.601562 10.375 -4.21875 C 11.007812 -3.84375 11.816406 -3.65625 12.796875 -3.65625 C 13.941406 -3.65625 15.007812 -3.953125 16 -4.546875 C 16.988281 -5.148438 17.796875 -6.078125 18.421875 -7.328125 C 19.046875 -8.585938 19.359375 -10.191406 19.359375 -12.140625 L 19.359375 -24.546875 L 24.15625 -24.546875 L 24.15625 0 L 19.359375 0 L 19.359375 -3.5625 C 18.910156 -2.820312 18.3125 -2.144531 17.5625 -1.53125 C 16.820312 -0.914062 15.972656 -0.421875 15.015625 -0.046875 C 14.054688 0.328125 13.003906 0.515625 11.859375 0.515625 Z M 11.859375 0.515625 "/></g></g></g><g fill="#414c50" fill-opacity="1"><g transform="translate(568.400145, 792.683816)"><g><path d="M 3.875 0 L 3.875 -24.546875 L 8.546875 -24.546875 L 8.546875 -20.296875 C 8.941406 -21.296875 9.492188 -22.148438 10.203125 -22.859375 C 10.921875 -23.566406 11.738281 -24.109375 12.65625 -24.484375 C 13.570312 -24.867188 14.515625 -25.0625 15.484375 -25.0625 C 16.316406 -25.0625 17.097656 -24.925781 17.828125 -24.65625 C 18.554688 -24.394531 19.171875 -24.03125 19.671875 -23.5625 L 17.59375 -19.5625 C 16.789062 -20.164062 15.835938 -20.46875 14.734375 -20.46875 C 13.554688 -20.46875 12.492188 -20.128906 11.546875 -19.453125 C 10.609375 -18.785156 9.863281 -17.78125 9.3125 -16.4375 C 8.769531 -15.09375 8.5 -13.40625 8.5 -11.375 L 8.5 0 Z M 3.875 0 "/></g></g></g><g fill="#414c50" fill-opacity="1"><g transform="translate(588.174778, 792.683816)"><g/></g></g><g fill="#414c50" fill-opacity="1"><g transform="translate(600.899303, 792.683816)"><g><path d="M 4.859375 0 L 4.859375 -34.71875 L 14.265625 -34.71875 C 18.117188 -34.71875 21.363281 -34.035156 24 -32.671875 C 26.632812 -31.316406 28.628906 -29.328125 29.984375 -26.703125 C 31.347656 -24.078125 32.03125 -20.875 32.03125 -17.09375 C 32.03125 -13.476562 31.335938 -10.390625 29.953125 -7.828125 C 28.578125 -5.273438 26.566406 -3.332031 23.921875 -2 C 21.273438 -0.664062 18.039062 0 14.21875 0 Z M 9.84375 -4.5625 L 13.640625 -4.5625 C 15.597656 -4.5625 17.394531 -4.800781 19.03125 -5.28125 C 20.675781 -5.769531 22.09375 -6.519531 23.28125 -7.53125 C 24.476562 -8.550781 25.40625 -9.875 26.0625 -11.5 C 26.71875 -13.132812 27.046875 -15.09375 27.046875 -17.375 C 27.046875 -21.675781 26.015625 -24.882812 23.953125 -27 C 21.890625 -29.113281 18.628906 -30.171875 14.171875 -30.171875 L 9.84375 -30.171875 Z M 9.84375 -4.5625 "/></g></g></g><g fill="#414c50" fill-opacity="1"><g transform="translate(635.461922, 792.683816)"><g><path d="M 3.875 0 L 3.875 -24.546875 L 8.546875 -24.546875 L 8.546875 -20.296875 C 8.941406 -21.296875 9.492188 -22.148438 10.203125 -22.859375 C 10.921875 -23.566406 11.738281 -24.109375 12.65625 -24.484375 C 13.570312 -24.867188 14.515625 -25.0625 15.484375 -25.0625 C 16.316406 -25.0625 17.097656 -24.925781 17.828125 -24.65625 C 18.554688 -24.394531 19.171875 -24.03125 19.671875 -23.5625 L 17.59375 -19.5625 C 16.789062 -20.164062 15.835938 -20.46875 14.734375 -20.46875 C 13.554688 -20.46875 12.492188 -20.128906 11.546875 -19.453125 C 10.609375 -18.785156 9.863281 -17.78125 9.3125 -16.4375 C 8.769531 -15.09375 8.5 -13.40625 8.5 -11.375 L 8.5 0 Z M 3.875 0 "/></g></g></g><g fill="#414c50" fill-opacity="1"><g transform="translate(655.236533, 792.683816)"><g><path d="M 13.53125 0.421875 C 11.550781 0.421875 9.820312 0.0820312 8.34375 -0.59375 C 6.875 -1.28125 5.65625 -2.210938 4.6875 -3.390625 C 3.726562 -4.566406 3.007812 -5.90625 2.53125 -7.40625 C 2.050781 -8.914062 1.8125 -10.5 1.8125 -12.15625 C 1.8125 -13.78125 2.039062 -15.351562 2.5 -16.875 C 2.957031 -18.394531 3.65625 -19.765625 4.59375 -20.984375 C 5.53125 -22.210938 6.707031 -23.179688 8.125 -23.890625 C 9.539062 -24.597656 11.207031 -24.953125 13.125 -24.953125 C 14.769531 -24.953125 16.203125 -24.710938 17.421875 -24.234375 C 18.648438 -23.765625 19.679688 -23.113281 20.515625 -22.28125 C 21.347656 -21.457031 22.019531 -20.519531 22.53125 -19.46875 C 23.039062 -18.425781 23.410156 -17.332031 23.640625 -16.1875 C 23.867188 -15.039062 23.984375 -13.910156 23.984375 -12.796875 C 23.984375 -12.390625 23.960938 -11.988281 23.921875 -11.59375 C 23.890625 -11.195312 23.859375 -10.90625 23.828125 -10.71875 L 6.859375 -10.71875 C 6.941406 -9.4375 7.226562 -8.273438 7.71875 -7.234375 C 8.21875 -6.191406 8.945312 -5.363281 9.90625 -4.75 C 10.863281 -4.132812 12.070312 -3.828125 13.53125 -3.828125 C 14.789062 -3.828125 15.945312 -4.015625 17 -4.390625 C 18.0625 -4.773438 19.046875 -5.46875 19.953125 -6.46875 L 23.234375 -3.6875 C 21.890625 -2.28125 20.4375 -1.242188 18.875 -0.578125 C 17.3125 0.0859375 15.53125 0.421875 13.53125 0.421875 Z M 6.859375 -14.328125 L 19.359375 -14.328125 C 19.296875 -15.566406 19.03125 -16.691406 18.5625 -17.703125 C 18.09375 -18.710938 17.410156 -19.515625 16.515625 -20.109375 C 15.628906 -20.703125 14.488281 -21 13.09375 -21 C 11.75 -21 10.640625 -20.695312 9.765625 -20.09375 C 8.890625 -19.488281 8.210938 -18.675781 7.734375 -17.65625 C 7.265625 -16.644531 6.972656 -15.535156 6.859375 -14.328125 Z M 6.859375 -14.328125 "/></g></g></g><g fill="#414c50" fill-opacity="1"><g transform="translate(681.054081, 792.683816)"><g><path d="M 10.046875 0.484375 C 8.441406 0.484375 7.003906 0.179688 5.734375 -0.421875 C 4.460938 -1.023438 3.460938 -1.894531 2.734375 -3.03125 C 2.003906 -4.164062 1.640625 -5.546875 1.640625 -7.171875 C 1.640625 -8.878906 2.0625 -10.253906 2.90625 -11.296875 C 3.75 -12.347656 4.941406 -13.113281 6.484375 -13.59375 C 8.035156 -14.082031 9.863281 -14.328125 11.96875 -14.328125 L 17.9375 -14.328125 C 17.9375 -15.628906 17.742188 -16.769531 17.359375 -17.75 C 16.984375 -18.738281 16.394531 -19.507812 15.59375 -20.0625 C 14.789062 -20.625 13.742188 -20.90625 12.453125 -20.90625 C 11.410156 -20.90625 10.484375 -20.726562 9.671875 -20.375 C 8.859375 -20.019531 8.160156 -19.566406 7.578125 -19.015625 C 6.992188 -18.472656 6.515625 -17.90625 6.140625 -17.3125 L 2.578125 -19.96875 C 3.710938 -21.539062 5.066406 -22.78125 6.640625 -23.6875 C 8.222656 -24.601562 10.117188 -25.0625 12.328125 -25.0625 C 14.492188 -25.0625 16.328125 -24.632812 17.828125 -23.78125 C 19.328125 -22.925781 20.460938 -21.742188 21.234375 -20.234375 C 22.015625 -18.734375 22.40625 -16.984375 22.40625 -14.984375 L 22.40625 0 L 18.453125 0 L 18.203125 -4.15625 C 17.234375 -2.46875 16.03125 -1.269531 14.59375 -0.5625 C 13.164062 0.132812 11.648438 0.484375 10.046875 0.484375 Z M 10.65625 -3.53125 C 11.726562 -3.53125 12.703125 -3.738281 13.578125 -4.15625 C 14.460938 -4.582031 15.226562 -5.144531 15.875 -5.84375 C 16.53125 -6.550781 17.03125 -7.332031 17.375 -8.1875 C 17.726562 -9.050781 17.914062 -9.925781 17.9375 -10.8125 L 12.3125 -10.8125 C 10.375 -10.8125 8.925781 -10.488281 7.96875 -9.84375 C 7.007812 -9.195312 6.53125 -8.257812 6.53125 -7.03125 C 6.53125 -5.882812 6.914062 -5.015625 7.6875 -4.421875 C 8.457031 -3.828125 9.445312 -3.53125 10.65625 -3.53125 Z M 10.65625 -3.53125 "/></g></g></g><g fill="#414c50" fill-opacity="1"><g transform="translate(706.65053, 792.683816)"><g><path d="M 3.875 0 L 3.875 -24.546875 L 8.671875 -24.546875 L 8.671875 -21.328125 C 9.304688 -22.484375 10.207031 -23.394531 11.375 -24.0625 C 12.539062 -24.726562 13.796875 -25.0625 15.140625 -25.0625 C 16.753906 -25.0625 18.179688 -24.671875 19.421875 -23.890625 C 20.671875 -23.109375 21.648438 -21.910156 22.359375 -20.296875 C 23.222656 -21.878906 24.332031 -23.066406 25.6875 -23.859375 C 27.050781 -24.660156 28.5625 -25.0625 30.21875 -25.0625 C 31.769531 -25.0625 33.097656 -24.78125 34.203125 -24.21875 C 35.316406 -23.664062 36.226562 -22.910156 36.9375 -21.953125 C 37.644531 -20.992188 38.164062 -19.898438 38.5 -18.671875 C 38.84375 -17.441406 39.015625 -16.164062 39.015625 -14.84375 L 39.015625 0 L 34.171875 0 L 34.171875 -14.296875 C 34.171875 -15.085938 34.097656 -15.863281 33.953125 -16.625 C 33.816406 -17.394531 33.578125 -18.09375 33.234375 -18.71875 C 32.890625 -19.351562 32.414062 -19.851562 31.8125 -20.21875 C 31.21875 -20.59375 30.457031 -20.78125 29.53125 -20.78125 C 28.613281 -20.78125 27.796875 -20.578125 27.078125 -20.171875 C 26.367188 -19.773438 25.769531 -19.234375 25.28125 -18.546875 C 24.800781 -17.859375 24.4375 -17.078125 24.1875 -16.203125 C 23.9375 -15.335938 23.8125 -14.445312 23.8125 -13.53125 L 23.8125 0 L 18.984375 0 L 18.984375 -14.390625 C 18.984375 -15.179688 18.914062 -15.957031 18.78125 -16.71875 C 18.65625 -17.476562 18.425781 -18.164062 18.09375 -18.78125 C 17.757812 -19.394531 17.289062 -19.878906 16.6875 -20.234375 C 16.09375 -20.597656 15.335938 -20.78125 14.421875 -20.78125 C 13.503906 -20.78125 12.6875 -20.566406 11.96875 -20.140625 C 11.257812 -19.710938 10.660156 -19.132812 10.171875 -18.40625 C 9.679688 -17.675781 9.304688 -16.851562 9.046875 -15.9375 C 8.796875 -15.019531 8.671875 -14.082031 8.671875 -13.125 L 8.671875 0 Z M 3.875 0 "/></g></g></g><g fill="#414c50" fill-opacity="1"><g transform="translate(748.877348, 792.683816)"><g><path d="M 3.25 7.734375 L 6.65625 -6.484375 L 12.4375 -6.484375 L 6.3125 7.734375 Z M 3.25 7.734375 "/></g></g></g><g fill="#414c50" fill-opacity="1"><g transform="translate(764.279446, 792.683816)"><g/></g></g><g fill="#414c50" fill-opacity="1"><g transform="translate(777.003993, 792.683816)"><g><path d="M 4.859375 0 L 4.859375 -34.71875 L 28.234375 -34.71875 L 28.234375 -30.234375 L 9.84375 -30.234375 L 9.84375 -19.578125 L 26.0625 -19.578125 L 26.0625 -15.15625 L 9.84375 -15.15625 L 9.84375 0 Z M 4.859375 0 "/></g></g></g><g fill="#414c50" fill-opacity="1"><g transform="translate(806.825554, 792.683816)"><g><path d="M 11.859375 0.515625 C 9.828125 0.515625 8.171875 0.03125 6.890625 -0.9375 C 5.609375 -1.914062 4.664062 -3.265625 4.0625 -4.984375 C 3.46875 -6.703125 3.171875 -8.675781 3.171875 -10.90625 L 3.171875 -24.546875 L 7.984375 -24.546875 L 7.984375 -10.6875 C 7.984375 -9.75 8.050781 -8.851562 8.1875 -8 C 8.332031 -7.15625 8.578125 -6.410156 8.921875 -5.765625 C 9.265625 -5.117188 9.75 -4.601562 10.375 -4.21875 C 11.007812 -3.84375 11.816406 -3.65625 12.796875 -3.65625 C 13.941406 -3.65625 15.007812 -3.953125 16 -4.546875 C 16.988281 -5.148438 17.796875 -6.078125 18.421875 -7.328125 C 19.046875 -8.585938 19.359375 -10.191406 19.359375 -12.140625 L 19.359375 -24.546875 L 24.15625 -24.546875 L 24.15625 0 L 19.359375 0 L 19.359375 -3.5625 C 18.910156 -2.820312 18.3125 -2.144531 17.5625 -1.53125 C 16.820312 -0.914062 15.972656 -0.421875 15.015625 -0.046875 C 14.054688 0.328125 13.003906 0.515625 11.859375 0.515625 Z M 11.859375 0.515625 "/></g></g></g><g fill="#414c50" fill-opacity="1"><g transform="translate(834.829382, 792.683816)"><g><path d="M 3.875 0 L 3.875 -24.546875 L 8.59375 -24.546875 L 8.59375 -20.9375 C 9.5 -22.257812 10.613281 -23.269531 11.9375 -23.96875 C 13.257812 -24.664062 14.675781 -25.015625 16.1875 -25.015625 C 17.707031 -25.015625 19.007812 -24.734375 20.09375 -24.171875 C 21.1875 -23.617188 22.070312 -22.863281 22.75 -21.90625 C 23.4375 -20.945312 23.9375 -19.859375 24.25 -18.640625 C 24.570312 -17.429688 24.734375 -16.164062 24.734375 -14.84375 L 24.734375 0 L 20.015625 0 L 20.015625 -14.296875 C 20.015625 -15.117188 19.921875 -15.910156 19.734375 -16.671875 C 19.546875 -17.441406 19.25 -18.132812 18.84375 -18.75 C 18.4375 -19.363281 17.90625 -19.851562 17.25 -20.21875 C 16.59375 -20.582031 15.796875 -20.765625 14.859375 -20.765625 C 13.660156 -20.765625 12.585938 -20.484375 11.640625 -19.921875 C 10.691406 -19.367188 9.945312 -18.523438 9.40625 -17.390625 C 8.863281 -16.265625 8.59375 -14.820312 8.59375 -13.0625 L 8.59375 0 Z M 3.875 0 "/></g></g></g><g fill="#414c50" fill-opacity="1"><g transform="translate(862.808627, 792.683816)"><g><path d="M 19.5 -34.71875 L 24.296875 -34.71875 L 24.296875 0 L 19.78125 0 L 19.625 -3.078125 C 18.789062 -1.921875 17.742188 -1.035156 16.484375 -0.421875 C 15.222656 0.179688 13.789062 0.484375 12.1875 0.484375 C 10.550781 0.484375 9.097656 0.148438 7.828125 -0.515625 C 6.554688 -1.179688 5.484375 -2.101562 4.609375 -3.28125 C 3.742188 -4.46875 3.085938 -5.828125 2.640625 -7.359375 C 2.203125 -8.898438 1.984375 -10.539062 1.984375 -12.28125 C 1.984375 -14 2.203125 -15.628906 2.640625 -17.171875 C 3.085938 -18.710938 3.742188 -20.078125 4.609375 -21.265625 C 5.484375 -22.453125 6.550781 -23.378906 7.8125 -24.046875 C 9.070312 -24.722656 10.515625 -25.0625 12.140625 -25.0625 C 13.691406 -25.0625 15.097656 -24.765625 16.359375 -24.171875 C 17.617188 -23.585938 18.664062 -22.738281 19.5 -21.625 Z M 13.390625 -3.6875 C 14.535156 -3.6875 15.519531 -3.914062 16.34375 -4.375 C 17.175781 -4.832031 17.851562 -5.457031 18.375 -6.25 C 18.894531 -7.039062 19.28125 -7.953125 19.53125 -8.984375 C 19.78125 -10.023438 19.90625 -11.125 19.90625 -12.28125 C 19.90625 -13.425781 19.78125 -14.515625 19.53125 -15.546875 C 19.28125 -16.578125 18.894531 -17.488281 18.375 -18.28125 C 17.851562 -19.082031 17.175781 -19.710938 16.34375 -20.171875 C 15.519531 -20.628906 14.535156 -20.859375 13.390625 -20.859375 C 12.242188 -20.859375 11.253906 -20.628906 10.421875 -20.171875 C 9.597656 -19.710938 8.921875 -19.082031 8.390625 -18.28125 C 7.859375 -17.476562 7.460938 -16.5625 7.203125 -15.53125 C 6.953125 -14.5 6.828125 -13.414062 6.828125 -12.28125 C 6.828125 -11.132812 6.953125 -10.046875 7.203125 -9.015625 C 7.460938 -7.984375 7.859375 -7.066406 8.390625 -6.265625 C 8.921875 -5.460938 9.597656 -4.832031 10.421875 -4.375 C 11.253906 -3.914062 12.242188 -3.6875 13.390625 -3.6875 Z M 13.390625 -3.6875 "/></g></g></g><g fill="#414c50" fill-opacity="1"><g transform="translate(891.033509, 792.683816)"><g/></g></g><g fill="#414c50" fill-opacity="1"><g transform="translate(903.758056, 792.683816)"><g><path d="M 13.65625 0 L 13.65625 -13.5625 L 0.65625 -34.71875 L 6.609375 -34.71875 L 16.140625 -18.46875 L 25.71875 -34.71875 L 31.6875 -34.71875 L 18.75 -13.5625 L 18.75 0 Z M 13.65625 0 "/></g></g></g><g fill="#414c50" fill-opacity="1"><g transform="translate(936.109814, 792.683816)"><g><path d="M 13.75 0.484375 C 11.9375 0.484375 10.289062 0.148438 8.8125 -0.515625 C 7.34375 -1.179688 6.078125 -2.109375 5.015625 -3.296875 C 3.953125 -4.484375 3.128906 -5.851562 2.546875 -7.40625 C 1.972656 -8.957031 1.6875 -10.597656 1.6875 -12.328125 C 1.6875 -14.066406 1.972656 -15.707031 2.546875 -17.25 C 3.128906 -18.789062 3.953125 -20.144531 5.015625 -21.3125 C 6.078125 -22.476562 7.34375 -23.394531 8.8125 -24.0625 C 10.289062 -24.726562 11.9375 -25.0625 13.75 -25.0625 C 15.550781 -25.0625 17.191406 -24.726562 18.671875 -24.0625 C 20.160156 -23.394531 21.441406 -22.476562 22.515625 -21.3125 C 23.585938 -20.144531 24.414062 -18.789062 25 -17.25 C 25.582031 -15.707031 25.875 -14.066406 25.875 -12.328125 C 25.875 -10.597656 25.582031 -8.957031 25 -7.40625 C 24.414062 -5.851562 23.585938 -4.484375 22.515625 -3.296875 C 21.441406 -2.109375 20.160156 -1.179688 18.671875 -0.515625 C 17.191406 0.148438 15.550781 0.484375 13.75 0.484375 Z M 13.78125 -3.53125 C 15.039062 -3.53125 16.125 -3.773438 17.03125 -4.265625 C 17.945312 -4.765625 18.691406 -5.429688 19.265625 -6.265625 C 19.835938 -7.097656 20.257812 -8.035156 20.53125 -9.078125 C 20.8125 -10.128906 20.953125 -11.210938 20.953125 -12.328125 C 20.953125 -13.460938 20.8125 -14.546875 20.53125 -15.578125 C 20.257812 -16.609375 19.835938 -17.53125 19.265625 -18.34375 C 18.691406 -19.164062 17.945312 -19.8125 17.03125 -20.28125 C 16.125 -20.757812 15.039062 -21 13.78125 -21 C 12.539062 -21 11.460938 -20.757812 10.546875 -20.28125 C 9.640625 -19.8125 8.894531 -19.164062 8.3125 -18.34375 C 7.726562 -17.53125 7.296875 -16.609375 7.015625 -15.578125 C 6.742188 -14.546875 6.609375 -13.460938 6.609375 -12.328125 C 6.609375 -11.203125 6.742188 -10.113281 7.015625 -9.0625 C 7.296875 -8.019531 7.726562 -7.078125 8.3125 -6.234375 C 8.894531 -5.398438 9.640625 -4.738281 10.546875 -4.25 C 11.460938 -3.769531 12.539062 -3.53125 13.78125 -3.53125 Z M 13.78125 -3.53125 "/></g></g></g><g fill="#414c50" fill-opacity="1"><g transform="translate(963.696024, 792.683816)"><g><path d="M 11.859375 0.515625 C 9.828125 0.515625 8.171875 0.03125 6.890625 -0.9375 C 5.609375 -1.914062 4.664062 -3.265625 4.0625 -4.984375 C 3.46875 -6.703125 3.171875 -8.675781 3.171875 -10.90625 L 3.171875 -24.546875 L 7.984375 -24.546875 L 7.984375 -10.6875 C 7.984375 -9.75 8.050781 -8.851562 8.1875 -8 C 8.332031 -7.15625 8.578125 -6.410156 8.921875 -5.765625 C 9.265625 -5.117188 9.75 -4.601562 10.375 -4.21875 C 11.007812 -3.84375 11.816406 -3.65625 12.796875 -3.65625 C 13.941406 -3.65625 15.007812 -3.953125 16 -4.546875 C 16.988281 -5.148438 17.796875 -6.078125 18.421875 -7.328125 C 19.046875 -8.585938 19.359375 -10.191406 19.359375 -12.140625 L 19.359375 -24.546875 L 24.15625 -24.546875 L 24.15625 0 L 19.359375 0 L 19.359375 -3.5625 C 18.910156 -2.820312 18.3125 -2.144531 17.5625 -1.53125 C 16.820312 -0.914062 15.972656 -0.421875 15.015625 -0.046875 C 14.054688 0.328125 13.003906 0.515625 11.859375 0.515625 Z M 11.859375 0.515625 "/></g></g></g><g fill="#414c50" fill-opacity="1"><g transform="translate(991.699806, 792.683816)"><g><path d="M 3.875 0 L 3.875 -24.546875 L 8.546875 -24.546875 L 8.546875 -20.296875 C 8.941406 -21.296875 9.492188 -22.148438 10.203125 -22.859375 C 10.921875 -23.566406 11.738281 -24.109375 12.65625 -24.484375 C 13.570312 -24.867188 14.515625 -25.0625 15.484375 -25.0625 C 16.316406 -25.0625 17.097656 -24.925781 17.828125 -24.65625 C 18.554688 -24.394531 19.171875 -24.03125 19.671875 -23.5625 L 17.59375 -19.5625 C 16.789062 -20.164062 15.835938 -20.46875 14.734375 -20.46875 C 13.554688 -20.46875 12.492188 -20.128906 11.546875 -19.453125 C 10.609375 -18.785156 9.863281 -17.78125 9.3125 -16.4375 C 8.769531 -15.09375 8.5 -13.40625 8.5 -11.375 L 8.5 0 Z M 3.875 0 "/></g></g></g><g fill="#414c50" fill-opacity="1"><g transform="translate(1011.474462, 792.683816)"><g/></g></g><g fill="#414c50" fill-opacity="1"><g transform="translate(1024.199009, 792.683816)"><g><path d="M 4.859375 0 L 4.859375 -34.71875 L 28.234375 -34.71875 L 28.234375 -30.234375 L 9.84375 -30.234375 L 9.84375 -19.578125 L 26.0625 -19.578125 L 26.0625 -15.15625 L 9.84375 -15.15625 L 9.84375 0 Z M 4.859375 0 "/></g></g></g><g fill="#414c50" fill-opacity="1"><g transform="translate(1054.02057, 792.683816)"><g><path d="M 11.859375 0.515625 C 9.828125 0.515625 8.171875 0.03125 6.890625 -0.9375 C 5.609375 -1.914062 4.664062 -3.265625 4.0625 -4.984375 C 3.46875 -6.703125 3.171875 -8.675781 3.171875 -10.90625 L 3.171875 -24.546875 L 7.984375 -24.546875 L 7.984375 -10.6875 C 7.984375 -9.75 8.050781 -8.851562 8.1875 -8 C 8.332031 -7.15625 8.578125 -6.410156 8.921875 -5.765625 C 9.265625 -5.117188 9.75 -4.601562 10.375 -4.21875 C 11.007812 -3.84375 11.816406 -3.65625 12.796875 -3.65625 C 13.941406 -3.65625 15.007812 -3.953125 16 -4.546875 C 16.988281 -5.148438 17.796875 -6.078125 18.421875 -7.328125 C 19.046875 -8.585938 19.359375 -10.191406 19.359375 -12.140625 L 19.359375 -24.546875 L 24.15625 -24.546875 L 24.15625 0 L 19.359375 0 L 19.359375 -3.5625 C 18.910156 -2.820312 18.3125 -2.144531 17.5625 -1.53125 C 16.820312 -0.914062 15.972656 -0.421875 15.015625 -0.046875 C 14.054688 0.328125 13.003906 0.515625 11.859375 0.515625 Z M 11.859375 0.515625 "/></g></g></g><g fill="#414c50" fill-opacity="1"><g transform="translate(1082.024398, 792.683816)"><g><path d="M 11.578125 0.484375 C 9.296875 0.484375 7.597656 -0.160156 6.484375 -1.453125 C 5.367188 -2.742188 4.8125 -4.472656 4.8125 -6.640625 L 4.8125 -20.59375 L 0.859375 -20.59375 L 0.859375 -24.546875 L 4.859375 -24.546875 L 4.859375 -30.34375 L 9.53125 -34.171875 L 9.53125 -24.546875 L 15.75 -24.546875 L 15.75 -20.59375 L 9.53125 -20.59375 L 9.53125 -7.125 C 9.53125 -5.863281 9.8125 -4.957031 10.375 -4.40625 C 10.945312 -3.863281 11.648438 -3.59375 12.484375 -3.59375 C 13.003906 -3.59375 13.519531 -3.664062 14.03125 -3.8125 C 14.550781 -3.96875 15.007812 -4.144531 15.40625 -4.34375 L 15.40625 -0.125 C 15.039062 0.0195312 14.507812 0.15625 13.8125 0.28125 C 13.125 0.414062 12.378906 0.484375 11.578125 0.484375 Z M 11.578125 0.484375 "/></g></g></g><g fill="#414c50" fill-opacity="1"><g transform="translate(1099.489912, 792.683816)"><g><path d="M 11.859375 0.515625 C 9.828125 0.515625 8.171875 0.03125 6.890625 -0.9375 C 5.609375 -1.914062 4.664062 -3.265625 4.0625 -4.984375 C 3.46875 -6.703125 3.171875 -8.675781 3.171875 -10.90625 L 3.171875 -24.546875 L 7.984375 -24.546875 L 7.984375 -10.6875 C 7.984375 -9.75 8.050781 -8.851562 8.1875 -8 C 8.332031 -7.15625 8.578125 -6.410156 8.921875 -5.765625 C 9.265625 -5.117188 9.75 -4.601562 10.375 -4.21875 C 11.007812 -3.84375 11.816406 -3.65625 12.796875 -3.65625 C 13.941406 -3.65625 15.007812 -3.953125 16 -4.546875 C 16.988281 -5.148438 17.796875 -6.078125 18.421875 -7.328125 C 19.046875 -8.585938 19.359375 -10.191406 19.359375 -12.140625 L 19.359375 -24.546875 L 24.15625 -24.546875 L 24.15625 0 L 19.359375 0 L 19.359375 -3.5625 C 18.910156 -2.820312 18.3125 -2.144531 17.5625 -1.53125 C 16.820312 -0.914062 15.972656 -0.421875 15.015625 -0.046875 C 14.054688 0.328125 13.003906 0.515625 11.859375 0.515625 Z M 11.859375 0.515625 "/></g></g></g><g fill="#414c50" fill-opacity="1"><g transform="translate(1127.493739, 792.683816)"><g><path d="M 3.875 0 L 3.875 -24.546875 L 8.546875 -24.546875 L 8.546875 -20.296875 C 8.941406 -21.296875 9.492188 -22.148438 10.203125 -22.859375 C 10.921875 -23.566406 11.738281 -24.109375 12.65625 -24.484375 C 13.570312 -24.867188 14.515625 -25.0625 15.484375 -25.0625 C 16.316406 -25.0625 17.097656 -24.925781 17.828125 -24.65625 C 18.554688 -24.394531 19.171875 -24.03125 19.671875 -23.5625 L 17.59375 -19.5625 C 16.789062 -20.164062 15.835938 -20.46875 14.734375 -20.46875 C 13.554688 -20.46875 12.492188 -20.128906 11.546875 -19.453125 C 10.609375 -18.785156 9.863281 -17.78125 9.3125 -16.4375 C 8.769531 -15.09375 8.5 -13.40625 8.5 -11.375 L 8.5 0 Z M 3.875 0 "/></g></g></g><g fill="#414c50" fill-opacity="1"><g transform="translate(1147.268304, 792.683816)"><g><path d="M 13.53125 0.421875 C 11.550781 0.421875 9.820312 0.0820312 8.34375 -0.59375 C 6.875 -1.28125 5.65625 -2.210938 4.6875 -3.390625 C 3.726562 -4.566406 3.007812 -5.90625 2.53125 -7.40625 C 2.050781 -8.914062 1.8125 -10.5 1.8125 -12.15625 C 1.8125 -13.78125 2.039062 -15.351562 2.5 -16.875 C 2.957031 -18.394531 3.65625 -19.765625 4.59375 -20.984375 C 5.53125 -22.210938 6.707031 -23.179688 8.125 -23.890625 C 9.539062 -24.597656 11.207031 -24.953125 13.125 -24.953125 C 14.769531 -24.953125 16.203125 -24.710938 17.421875 -24.234375 C 18.648438 -23.765625 19.679688 -23.113281 20.515625 -22.28125 C 21.347656 -21.457031 22.019531 -20.519531 22.53125 -19.46875 C 23.039062 -18.425781 23.410156 -17.332031 23.640625 -16.1875 C 23.867188 -15.039062 23.984375 -13.910156 23.984375 -12.796875 C 23.984375 -12.390625 23.960938 -11.988281 23.921875 -11.59375 C 23.890625 -11.195312 23.859375 -10.90625 23.828125 -10.71875 L 6.859375 -10.71875 C 6.941406 -9.4375 7.226562 -8.273438 7.71875 -7.234375 C 8.21875 -6.191406 8.945312 -5.363281 9.90625 -4.75 C 10.863281 -4.132812 12.070312 -3.828125 13.53125 -3.828125 C 14.789062 -3.828125 15.945312 -4.015625 17 -4.390625 C 18.0625 -4.773438 19.046875 -5.46875 19.953125 -6.46875 L 23.234375 -3.6875 C 21.890625 -2.28125 20.4375 -1.242188 18.875 -0.578125 C 17.3125 0.0859375 15.53125 0.421875 13.53125 0.421875 Z M 6.859375 -14.328125 L 19.359375 -14.328125 C 19.296875 -15.566406 19.03125 -16.691406 18.5625 -17.703125 C 18.09375 -18.710938 17.410156 -19.515625 16.515625 -20.109375 C 15.628906 -20.703125 14.488281 -21 13.09375 -21 C 11.75 -21 10.640625 -20.695312 9.765625 -20.09375 C 8.890625 -19.488281 8.210938 -18.675781 7.734375 -17.65625 C 7.265625 -16.644531 6.972656 -15.535156 6.859375 -14.328125 Z M 6.859375 -14.328125 "/></g></g></g><g fill="#414c50" fill-opacity="1"><g transform="translate(1173.085899, 792.683816)"><g><path d="M 5.328125 0 L 5.328125 -5.578125 L 10.765625 -5.578125 L 10.765625 0 Z M 5.328125 0 "/></g></g></g></svg>