<svg xmlns="http://www.w3.org/2000/svg" xmlns:xlink="http://www.w3.org/1999/xlink" width="2000" zoomAndPan="magnify" viewBox="0 0 1500 1499.999933" height="2000" preserveAspectRatio="xMidYMid meet" version="1.0"><defs><g/></defs><g fill="#f24949" fill-opacity="1"><g transform="translate(172.001808, 835.15074)"><g><path d="M 9.796875 -9.328125 L 5.6875 -128.078125 C 5.59375 -130.953125 6.765625 -133.210938 9.203125 -134.859375 C 11.640625 -136.503906 14.601562 -137.382812 18.09375 -137.5 L 83 -139.75 C 85.863281 -139.851562 88.082031 -138.679688 89.65625 -136.234375 C 91.238281 -133.785156 92.085938 -130.878906 92.203125 -127.515625 C 92.328125 -123.890625 91.65625 -120.804688 90.1875 -118.265625 C 88.71875 -115.722656 86.613281 -114.40625 83.875 -114.3125 L 35.421875 -112.640625 L 36.515625 -81.03125 L 64.765625 -82 C 67.503906 -82.09375 69.691406 -81.046875 71.328125 -78.859375 C 72.972656 -76.671875 73.847656 -74.019531 73.953125 -70.90625 C 74.046875 -68.039062 73.378906 -65.457031 71.953125 -63.15625 C 70.535156 -60.863281 68.394531 -59.664062 65.53125 -59.5625 L 37.28125 -58.59375 L 38.953125 -10.34375 C 39.054688 -7.46875 37.703125 -5.203125 34.890625 -3.546875 C 32.078125 -1.890625 28.675781 -0.988281 24.6875 -0.84375 C 20.695312 -0.707031 17.242188 -1.367188 14.328125 -2.828125 C 11.410156 -4.285156 9.898438 -6.453125 9.796875 -9.328125 Z M 9.796875 -9.328125 "/></g></g></g><g fill="#f24949" fill-opacity="1"><g transform="translate(268.319633, 831.820909)"><g><path d="M 6.1875 -37.671875 L 4.71875 -80.3125 C 4.632812 -82.5625 5.992188 -84.671875 8.796875 -86.640625 C 11.597656 -88.609375 14.992188 -89.660156 18.984375 -89.796875 C 22.734375 -89.921875 26.101562 -89.097656 29.09375 -87.328125 C 32.09375 -85.566406 33.632812 -83.5625 33.71875 -81.3125 L 35.1875 -38.671875 C 35.3125 -35.054688 36.789062 -31.859375 39.625 -29.078125 C 42.46875 -26.304688 45.695312 -24.984375 49.3125 -25.109375 C 52.925781 -25.234375 56.023438 -26.773438 58.609375 -29.734375 C 61.191406 -32.703125 62.421875 -35.992188 62.296875 -39.609375 L 60.828125 -82.4375 C 60.742188 -84.8125 62.132812 -86.921875 65 -88.765625 C 67.863281 -90.609375 71.226562 -91.597656 75.09375 -91.734375 C 79.21875 -91.878906 82.679688 -91.125 85.484375 -89.46875 C 88.285156 -87.820312 89.726562 -85.8125 89.8125 -83.4375 L 91.28125 -40.609375 C 91.644531 -30.128906 87.753906 -20.816406 79.609375 -12.671875 C 71.460938 -4.523438 61.65625 -0.253906 50.1875 0.140625 C 38.59375 0.546875 28.453125 -3.03125 19.765625 -10.59375 C 11.078125 -18.164062 6.550781 -27.191406 6.1875 -37.671875 Z M 6.1875 -37.671875 "/></g></g></g><g fill="#f24949" fill-opacity="1"><g transform="translate(368.377967, 828.361764)"><g><path d="M 6.953125 -31.890625 L 3.9375 -119.21875 C 3.851562 -121.71875 5.273438 -123.859375 8.203125 -125.640625 C 11.128906 -127.429688 14.398438 -128.390625 18.015625 -128.515625 C 21.890625 -128.640625 25.320312 -127.910156 28.3125 -126.328125 C 31.300781 -124.753906 32.835938 -122.71875 32.921875 -120.21875 L 33.953125 -90.3125 L 55.09375 -91.046875 C 57.332031 -91.117188 59.109375 -90.144531 60.421875 -88.125 C 61.742188 -86.113281 62.453125 -83.734375 62.546875 -80.984375 C 62.640625 -78.117188 62.097656 -75.664062 60.921875 -73.625 C 59.753906 -71.59375 58.050781 -70.539062 55.8125 -70.46875 L 34.671875 -69.734375 L 35.9375 -32.890625 C 36.03125 -30.148438 36.65625 -28.265625 37.8125 -27.234375 C 38.96875 -26.210938 40.984375 -25.753906 43.859375 -25.859375 L 51.90625 -26.140625 C 55.894531 -26.273438 58.988281 -25.160156 61.1875 -22.796875 C 63.382812 -20.441406 64.539062 -17.648438 64.65625 -14.421875 C 64.769531 -11.046875 63.8125 -8.132812 61.78125 -5.6875 C 59.75 -3.25 56.738281 -1.960938 52.75 -1.828125 L 44.703125 -1.546875 C 20.265625 -0.703125 7.679688 -10.816406 6.953125 -31.890625 Z M 6.953125 -31.890625 "/></g></g></g><g fill="#f24949" fill-opacity="1"><g transform="translate(436.455018, 826.008254)"><g><path d="M 6.1875 -37.671875 L 4.71875 -80.3125 C 4.632812 -82.5625 5.992188 -84.671875 8.796875 -86.640625 C 11.597656 -88.609375 14.992188 -89.660156 18.984375 -89.796875 C 22.734375 -89.921875 26.101562 -89.097656 29.09375 -87.328125 C 32.09375 -85.566406 33.632812 -83.5625 33.71875 -81.3125 L 35.1875 -38.671875 C 35.3125 -35.054688 36.789062 -31.859375 39.625 -29.078125 C 42.46875 -26.304688 45.695312 -24.984375 49.3125 -25.109375 C 52.925781 -25.234375 56.023438 -26.773438 58.609375 -29.734375 C 61.191406 -32.703125 62.421875 -35.992188 62.296875 -39.609375 L 60.828125 -82.4375 C 60.742188 -84.8125 62.132812 -86.921875 65 -88.765625 C 67.863281 -90.609375 71.226562 -91.597656 75.09375 -91.734375 C 79.21875 -91.878906 82.679688 -91.125 85.484375 -89.46875 C 88.285156 -87.820312 89.726562 -85.8125 89.8125 -83.4375 L 91.28125 -40.609375 C 91.644531 -30.128906 87.753906 -20.816406 79.609375 -12.671875 C 71.460938 -4.523438 61.65625 -0.253906 50.1875 0.140625 C 38.59375 0.546875 28.453125 -3.03125 19.765625 -10.59375 C 11.078125 -18.164062 6.550781 -27.191406 6.1875 -37.671875 Z M 6.1875 -37.671875 "/></g></g></g><g fill="#f24949" fill-opacity="1"><g transform="translate(536.513341, 822.549109)"><g><path d="M 8.109375 -9.28125 L 5.65625 -80.53125 C 5.5625 -83.15625 6.820312 -85.320312 9.4375 -87.03125 C 12.0625 -88.738281 15.429688 -89.664062 19.546875 -89.8125 C 23.171875 -89.9375 26.257812 -89.234375 28.8125 -87.703125 C 31.363281 -86.171875 32.6875 -84.09375 32.78125 -81.46875 L 33.015625 -74.546875 C 34.835938 -79.097656 37.78125 -83.128906 41.84375 -86.640625 C 45.914062 -90.148438 50.195312 -91.984375 54.6875 -92.140625 L 60.109375 -92.328125 C 62.847656 -92.421875 65.285156 -91.257812 67.421875 -88.84375 C 69.566406 -86.425781 70.695312 -83.53125 70.8125 -80.15625 C 70.9375 -76.664062 70.007812 -73.632812 68.03125 -71.0625 C 66.0625 -68.5 63.707031 -67.171875 60.96875 -67.078125 L 55.546875 -66.890625 C 50.179688 -66.703125 45.53125 -63.953125 41.59375 -58.640625 C 37.664062 -53.328125 35.84375 -46.554688 36.125 -38.328125 L 37.09375 -10.28125 C 37.175781 -8.03125 35.78125 -5.914062 32.90625 -3.9375 C 30.039062 -1.96875 26.613281 -0.914062 22.625 -0.78125 C 18.632812 -0.644531 15.238281 -1.429688 12.4375 -3.140625 C 9.632812 -4.859375 8.191406 -6.90625 8.109375 -9.28125 Z M 8.109375 -9.28125 "/></g></g></g><g fill="#f24949" fill-opacity="1"><g transform="translate(610.201167, 820.001626)"><g><path d="M 3.734375 -37.953125 L 3.265625 -51.609375 C 2.898438 -62.203125 6.796875 -71.445312 14.953125 -79.34375 C 23.109375 -87.238281 33.109375 -91.390625 44.953125 -91.796875 C 56.046875 -92.179688 65.632812 -89.171875 73.71875 -82.765625 C 81.8125 -76.367188 86.035156 -68 86.390625 -57.65625 C 86.523438 -53.664062 86.140625 -50.40625 85.234375 -47.875 C 84.328125 -45.351562 82.890625 -43.554688 80.921875 -42.484375 C 78.960938 -41.421875 77.144531 -40.703125 75.46875 -40.328125 C 73.800781 -39.960938 71.59375 -39.734375 68.84375 -39.640625 L 32.765625 -38.390625 L 32.796875 -37.28125 C 32.953125 -32.65625 34.820312 -29 38.40625 -26.3125 C 42 -23.625 46.660156 -22.378906 52.390625 -22.578125 C 56.765625 -22.734375 61.3125 -24.050781 66.03125 -26.53125 C 70.75 -29.007812 73.921875 -30.273438 75.546875 -30.328125 C 78.660156 -30.441406 81.265625 -29.066406 83.359375 -26.203125 C 85.453125 -23.335938 86.546875 -20.59375 86.640625 -17.96875 C 86.773438 -14.113281 83.566406 -10.226562 77.015625 -6.3125 C 70.472656 -2.40625 62.28125 -0.28125 52.4375 0.0625 C 38.46875 0.539062 26.960938 -2.710938 17.921875 -9.703125 C 8.878906 -16.691406 4.148438 -26.109375 3.734375 -37.953125 Z M 32.203125 -54.65625 L 55.390625 -55.46875 C 58.003906 -55.550781 59.257812 -57.09375 59.15625 -60.09375 C 59.03125 -63.582031 57.59375 -66.273438 54.84375 -68.171875 C 52.09375 -70.066406 48.847656 -70.953125 45.109375 -70.828125 C 41.492188 -70.703125 38.378906 -69.597656 35.765625 -67.515625 C 33.160156 -65.429688 31.921875 -62.644531 32.046875 -59.15625 Z M 32.203125 -54.65625 "/></g></g></g><g fill="#55756d" fill-opacity="1"><g transform="translate(715.701769, 810.681172)"><g><path d="M 7.515625 31.90625 L 11.375 -79.9375 C 11.46875 -82.5625 12.878906 -84.632812 15.609375 -86.15625 C 18.347656 -87.6875 21.648438 -88.382812 25.515625 -88.25 C 29.390625 -88.125 32.546875 -87.207031 34.984375 -85.5 C 37.421875 -83.789062 38.59375 -81.625 38.5 -79 L 38.359375 -74.703125 C 40.847656 -78.609375 44.382812 -81.851562 48.96875 -84.4375 C 53.5625 -87.019531 58.601562 -88.21875 64.09375 -88.03125 C 73.4375 -87.707031 81.21875 -83.597656 87.4375 -75.703125 C 93.65625 -67.816406 96.578125 -58.453125 96.203125 -47.609375 L 95.75 -34.515625 C 95.382812 -24.035156 91.789062 -14.914062 84.96875 -7.15625 C 78.15625 0.59375 70.445312 4.316406 61.84375 4.015625 C 56.601562 3.835938 51.753906 2.203125 47.296875 -0.890625 C 42.847656 -3.984375 39.765625 -7.613281 38.046875 -11.78125 L 36.5 32.90625 C 36.425781 35.15625 34.890625 37.160156 31.890625 38.921875 C 28.890625 40.691406 25.394531 41.503906 21.40625 41.359375 C 17.414062 41.222656 14.082031 40.207031 11.40625 38.3125 C 8.726562 36.414062 7.429688 34.28125 7.515625 31.90625 Z M 38.8125 -34.0625 C 38.75 -32.0625 40.066406 -29.515625 42.765625 -26.421875 C 45.460938 -23.328125 48.6875 -21.71875 52.4375 -21.59375 C 56.050781 -21.46875 59.304688 -22.820312 62.203125 -25.65625 C 65.109375 -28.488281 66.628906 -31.773438 66.765625 -35.515625 L 67.21875 -48.609375 C 67.34375 -52.222656 66.050781 -55.507812 63.34375 -58.46875 C 60.644531 -61.4375 57.363281 -62.988281 53.5 -63.125 C 49.875 -63.25 46.644531 -62.082031 43.8125 -59.625 C 40.988281 -57.164062 39.503906 -53.816406 39.359375 -49.578125 Z M 38.8125 -34.0625 "/></g></g></g><g fill="#55756d" fill-opacity="1"><g transform="translate(815.386037, 814.127385)"><g><path d="M 8.734375 -8.6875 L 11.1875 -79.9375 C 11.28125 -82.5625 12.691406 -84.640625 15.421875 -86.171875 C 18.160156 -87.703125 21.585938 -88.394531 25.703125 -88.25 C 29.328125 -88.125 32.359375 -87.207031 34.796875 -85.5 C 37.234375 -83.789062 38.40625 -81.625 38.3125 -79 L 38.078125 -72.078125 C 40.210938 -76.503906 43.425781 -80.328125 47.71875 -83.546875 C 52.019531 -86.765625 56.414062 -88.296875 60.90625 -88.140625 L 66.328125 -87.953125 C 69.066406 -87.859375 71.421875 -86.53125 73.390625 -83.96875 C 75.367188 -81.40625 76.300781 -78.4375 76.1875 -75.0625 C 76.0625 -71.570312 74.925781 -68.613281 72.78125 -66.1875 C 70.644531 -63.769531 68.207031 -62.609375 65.46875 -62.703125 L 60.046875 -62.890625 C 54.679688 -63.078125 49.847656 -60.65625 45.546875 -55.625 C 41.253906 -50.59375 38.96875 -43.960938 38.6875 -35.734375 L 37.71875 -7.6875 C 37.632812 -5.4375 36.09375 -3.425781 33.09375 -1.65625 C 30.101562 0.101562 26.613281 0.914062 22.625 0.78125 C 18.632812 0.644531 15.300781 -0.367188 12.625 -2.265625 C 9.945312 -4.171875 8.648438 -6.3125 8.734375 -8.6875 Z M 8.734375 -8.6875 "/></g></g></g><g fill="#55756d" fill-opacity="1"><g transform="translate(889.073852, 816.674867)"><g><path d="M 6.359375 -37.609375 L 6.828125 -51.265625 C 7.191406 -61.859375 11.710938 -70.8125 20.390625 -78.125 C 29.066406 -85.4375 39.328125 -88.890625 51.171875 -88.484375 C 62.265625 -88.097656 71.625 -84.429688 79.25 -77.484375 C 86.882812 -70.546875 90.523438 -61.90625 90.171875 -51.5625 C 90.035156 -47.570312 89.425781 -44.34375 88.34375 -41.875 C 87.257812 -39.414062 85.695312 -37.722656 83.65625 -36.796875 C 81.625 -35.878906 79.757812 -35.289062 78.0625 -35.03125 C 76.375 -34.78125 74.15625 -34.703125 71.40625 -34.796875 L 35.328125 -36.046875 L 35.296875 -34.9375 C 35.140625 -30.3125 36.753906 -26.535156 40.140625 -23.609375 C 43.535156 -20.679688 48.097656 -19.117188 53.828125 -18.921875 C 58.203125 -18.765625 62.828125 -19.757812 67.703125 -21.90625 C 72.578125 -24.050781 75.828125 -25.097656 77.453125 -25.046875 C 80.566406 -24.929688 83.070312 -23.375 84.96875 -20.375 C 86.863281 -17.375 87.765625 -14.5625 87.671875 -11.9375 C 87.535156 -8.082031 84.066406 -4.425781 77.265625 -0.96875 C 70.472656 2.476562 62.15625 4.03125 52.3125 3.6875 C 38.34375 3.207031 27.085938 -0.832031 18.546875 -8.4375 C 10.003906 -16.039062 5.941406 -25.765625 6.359375 -37.609375 Z M 35.890625 -52.3125 L 59.078125 -51.5 C 61.691406 -51.414062 63.050781 -52.875 63.15625 -55.875 C 63.28125 -59.363281 62.035156 -62.148438 59.421875 -64.234375 C 56.804688 -66.316406 53.628906 -67.421875 49.890625 -67.546875 C 46.273438 -67.671875 43.09375 -66.785156 40.34375 -64.890625 C 37.601562 -62.992188 36.171875 -60.300781 36.046875 -56.8125 Z M 35.890625 -52.3125 "/></g></g></g><g fill="#55756d" fill-opacity="1"><g transform="translate(981.838202, 819.881849)"><g><path d="M 8.734375 -8.6875 L 11.1875 -79.9375 C 11.28125 -82.5625 12.691406 -84.640625 15.421875 -86.171875 C 18.160156 -87.703125 21.648438 -88.394531 25.890625 -88.25 C 29.390625 -88.125 32.359375 -87.207031 34.796875 -85.5 C 37.234375 -83.789062 38.40625 -81.625 38.3125 -79 L 38.171875 -74.703125 C 40.285156 -78.628906 43.601562 -81.882812 48.125 -84.46875 C 52.65625 -87.050781 57.851562 -88.242188 63.71875 -88.046875 C 72.3125 -87.742188 79.625 -83.617188 85.65625 -75.671875 C 91.6875 -67.734375 94.519531 -58.40625 94.15625 -47.6875 L 92.703125 -5.796875 C 92.597656 -2.921875 91.085938 -0.753906 88.171875 0.703125 C 85.253906 2.160156 81.796875 2.820312 77.796875 2.6875 C 74.054688 2.5625 70.75 1.640625 67.875 -0.078125 C 65.007812 -1.804688 63.625 -4.046875 63.71875 -6.796875 L 65.171875 -48.6875 C 65.296875 -52.300781 64.066406 -55.585938 61.484375 -58.546875 C 58.898438 -61.503906 55.800781 -63.046875 52.1875 -63.171875 C 48.9375 -63.273438 45.988281 -62.09375 43.34375 -59.625 C 40.707031 -57.164062 39.316406 -53.816406 39.171875 -49.578125 L 37.71875 -7.6875 C 37.632812 -5.4375 36.09375 -3.425781 33.09375 -1.65625 C 30.101562 0.101562 26.675781 0.914062 22.8125 0.78125 C 18.695312 0.644531 15.300781 -0.367188 12.625 -2.265625 C 9.945312 -4.171875 8.648438 -6.3125 8.734375 -8.6875 Z M 8.734375 -8.6875 "/></g></g></g><g fill="#55756d" fill-opacity="1"><g transform="translate(1081.709502, 823.334528)"><g><path d="M 6.359375 -37.609375 L 6.828125 -51.265625 C 7.191406 -61.859375 11.710938 -70.8125 20.390625 -78.125 C 29.066406 -85.4375 39.328125 -88.890625 51.171875 -88.484375 C 62.265625 -88.097656 71.625 -84.429688 79.25 -77.484375 C 86.882812 -70.546875 90.523438 -61.90625 90.171875 -51.5625 C 90.035156 -47.570312 89.425781 -44.34375 88.34375 -41.875 C 87.257812 -39.414062 85.695312 -37.722656 83.65625 -36.796875 C 81.625 -35.878906 79.757812 -35.289062 78.0625 -35.03125 C 76.375 -34.78125 74.15625 -34.703125 71.40625 -34.796875 L 35.328125 -36.046875 L 35.296875 -34.9375 C 35.140625 -30.3125 36.753906 -26.535156 40.140625 -23.609375 C 43.535156 -20.679688 48.097656 -19.117188 53.828125 -18.921875 C 58.203125 -18.765625 62.828125 -19.757812 67.703125 -21.90625 C 72.578125 -24.050781 75.828125 -25.097656 77.453125 -25.046875 C 80.566406 -24.929688 83.070312 -23.375 84.96875 -20.375 C 86.863281 -17.375 87.765625 -14.5625 87.671875 -11.9375 C 87.535156 -8.082031 84.066406 -4.425781 77.265625 -0.96875 C 70.472656 2.476562 62.15625 4.03125 52.3125 3.6875 C 38.34375 3.207031 27.085938 -0.832031 18.546875 -8.4375 C 10.003906 -16.039062 5.941406 -25.765625 6.359375 -37.609375 Z M 35.890625 -52.3125 L 59.078125 -51.5 C 61.691406 -51.414062 63.050781 -52.875 63.15625 -55.875 C 63.28125 -59.363281 62.035156 -62.148438 59.421875 -64.234375 C 56.804688 -66.316406 53.628906 -67.421875 49.890625 -67.546875 C 46.273438 -67.671875 43.09375 -66.785156 40.34375 -64.890625 C 37.601562 -62.992188 36.171875 -60.300781 36.046875 -56.8125 Z M 35.890625 -52.3125 "/></g></g></g><g fill="#55756d" fill-opacity="1"><g transform="translate(1174.473873, 826.541512)"><g><path d="M 8.78125 -37.140625 L 10.25 -79.78125 C 10.332031 -82.03125 11.835938 -84.039062 14.765625 -85.8125 C 17.691406 -87.582031 21.148438 -88.398438 25.140625 -88.265625 C 28.890625 -88.140625 32.195312 -87.085938 35.0625 -85.109375 C 37.9375 -83.140625 39.332031 -81.03125 39.25 -78.78125 L 37.78125 -36.140625 C 37.65625 -32.523438 38.910156 -29.234375 41.546875 -26.265625 C 44.191406 -23.304688 47.320312 -21.765625 50.9375 -21.640625 C 54.550781 -21.515625 57.75 -22.835938 60.53125 -25.609375 C 63.3125 -28.390625 64.765625 -31.585938 64.890625 -35.203125 L 66.359375 -78.03125 C 66.441406 -80.40625 67.976562 -82.414062 70.96875 -84.0625 C 73.957031 -85.707031 77.382812 -86.460938 81.25 -86.328125 C 85.375 -86.179688 88.773438 -85.1875 91.453125 -83.34375 C 94.128906 -81.507812 95.425781 -79.40625 95.34375 -77.03125 L 93.875 -34.203125 C 93.507812 -23.722656 88.984375 -14.703125 80.296875 -7.140625 C 71.609375 0.421875 61.53125 4.003906 50.0625 3.609375 C 38.46875 3.203125 28.597656 -1.066406 20.453125 -9.203125 C 12.304688 -17.347656 8.414062 -26.660156 8.78125 -37.140625 Z M 8.78125 -37.140625 "/></g></g></g><g fill="#55756d" fill-opacity="1"><g transform="translate(1274.532174, 830.000656)"><g><path d="M 8.734375 -8.6875 L 11.1875 -79.9375 C 11.28125 -82.5625 12.691406 -84.640625 15.421875 -86.171875 C 18.160156 -87.703125 21.585938 -88.394531 25.703125 -88.25 C 29.328125 -88.125 32.359375 -87.207031 34.796875 -85.5 C 37.234375 -83.789062 38.40625 -81.625 38.3125 -79 L 38.078125 -72.078125 C 40.210938 -76.503906 43.425781 -80.328125 47.71875 -83.546875 C 52.019531 -86.765625 56.414062 -88.296875 60.90625 -88.140625 L 66.328125 -87.953125 C 69.066406 -87.859375 71.421875 -86.53125 73.390625 -83.96875 C 75.367188 -81.40625 76.300781 -78.4375 76.1875 -75.0625 C 76.0625 -71.570312 74.925781 -68.613281 72.78125 -66.1875 C 70.644531 -63.769531 68.207031 -62.609375 65.46875 -62.703125 L 60.046875 -62.890625 C 54.679688 -63.078125 49.847656 -60.65625 45.546875 -55.625 C 41.253906 -50.59375 38.96875 -43.960938 38.6875 -35.734375 L 37.71875 -7.6875 C 37.632812 -5.4375 36.09375 -3.425781 33.09375 -1.65625 C 30.101562 0.101562 26.613281 0.914062 22.625 0.78125 C 18.632812 0.644531 15.300781 -0.367188 12.625 -2.265625 C 9.945312 -4.171875 8.648438 -6.3125 8.734375 -8.6875 Z M 8.734375 -8.6875 "/></g></g></g></svg>